<?xml version="1.0" encoding="UTF-8"?>
<svg id="Layer_1" xmlns="http://www.w3.org/2000/svg" version="1.1" viewBox="0 0 24 24">
  <!-- Generator: Adobe Illustrator 29.3.1, SVG Export Plug-In . SVG Version: 2.1.0 Build 151)  -->
  <defs>
    <style>
      .st0 {
        fill: #fff;
      }
    </style>
  </defs>
  <path class="st0" d="M7.9,21.1c-1.7-.8-3.1-2-4.2-3.6-1.1-1.6-1.6-3.4-1.6-5.5s0-.9,0-1.3.1-.8.2-1.2l-1.2.7-1-1.7,4.8-2.8,2.8,4.8-1.8,1-1.4-2.4c-.2.5-.3.9-.4,1.4s-.1,1-.1,1.5c0,1.6.4,3.1,1.3,4.4s2.1,2.3,3.5,2.9l-1,1.8ZM15.5,9v-2h2.7c-.8-1-1.7-1.7-2.8-2.2s-2.2-.8-3.5-.8-1.8.1-2.6.4-1.6.7-2.3,1.2l-1-1.8c.8-.6,1.7-1,2.7-1.4s2-.5,3.1-.5,2.6.2,3.8.7,2.3,1.2,3.2,2.1v-1.4h2v5.5h-5.5ZM14.9,24l-4.8-2.8,2.8-4.8,1.7,1-1.4,2.5c2-.3,3.6-1.2,4.9-2.7s2-3.3,2-5.3,0-.4,0-.5,0-.3,0-.5h2c0,.2,0,.3,0,.5s0,.3,0,.5c0,2.3-.7,4.3-2,6s-3.1,3-5.2,3.6l1.1.7-1,1.7Z"/>
</svg>